<?xml version="1.0" encoding="iso-8859-1"?>
<!-- Generator: Adobe Illustrator 22.1.0, SVG Export Plug-In . SVG Version: 6.00 Build 0)  -->
<svg version="1.1" id="_x31_" xmlns="http://www.w3.org/2000/svg" xmlns:xlink="http://www.w3.org/1999/xlink" x="0px" y="0px"
	 viewBox="0 0 512 512" style="enable-background:new 0 0 512 512;" xml:space="preserve">
<g>
	<path style="fill:#231815;" d="M496.393,297.628v-6.244h-10.824v4.995h-2.227v-10.821h-10.26v-54.327h-4.16v-2.494h-8.953v3.12
		h-16.86v61.607h-6.242v-1.247h-6.454v2.494h-4.162v-3.117h-3.956v3.117h-8.74l-0.211-3.951h-3.328l-3.328,1.038v4.371h-8.538
		v-34.134h-7.701v-4.16h-14.151v2.496h-6.663v2.292h-9.57v28.307h-10.234v-84.739h-33.42v70.376h-7.759v-3.126h-2.913v3.126h-2.498
		v-4.373h-2.498v-69.1h-1.247v-1.872h-2.915v-2.29h2.707v-1.668H275.77v1.668h2.081v3.537h-7.076v68.266l-4.369-1.036l-2.501,0.624
		v2.498h-3.535v-61.055h-0.767v-3.678h0.56v-1.112h-19.296v1.339h1.36v2.524h-3.982v5.143l-1.261,1.263v56.919h-5.824v3.49h-2.332
		v6.798h2.137v2.716h-2.716v6.211h-2.526v-8.151h-4.855v-1.361h-4.267v1.944h-4.273v-1.358h-5.437v-4.272h-8.151v-60.434
		l-3.884-0.781v-4.267h0.776v-1.944l-16.502-0.971l-7.841,0.779v2.522h4.35l0.192,3.687l-9.706,1.36v65.936h-2.391v-6.935h-3.885
		v-2.22h-3.885v-3.052h-5.548v1.666h-6.107v-1.666h-16.928v7.491h-4.439v11.933h-3.328v-4.718h-3.331v-1.94h-6.107l-1.11-1.11
		l-1.11-38.855c0,0-2.22-4.163-3.606-4.717v-1.942h-8.605v1.942h1.664v11.099l-3.328,5.553v21.088h-6.941v4.441h-4.438v-3.048
		H70.488v-19.15h-8.603v19.7h-5.273v7.22h-9.157v-5.829h-6.661v9.157h-3.762v-4.995H26.639v7.49H9.159v7.354H0v12.629h512v-17.067
		H496.393z"/>
</g>
</svg>
