<?xml version="1.0" encoding="UTF-8"?>
<svg id="Layer_1" data-name="Layer 1" xmlns="http://www.w3.org/2000/svg" viewBox="0 0 2000 2000">
  <defs>
    <style>
      .cls-1 {
        fill: #0e538c;
      }

      .cls-2 {
        fill: #fff;
      }

      .cls-3 {
        fill: #cce9ff;
      }

      .cls-4 {
        fill: #fcd2b1;
      }

      .cls-5 {
        opacity: .47;
      }

      .cls-5, .cls-6 {
        fill: #ffbe55;
      }

      .cls-7 {
        fill: #f7f7f7;
      }

      .cls-8 {
        fill: #0b4870;
      }

      .cls-9 {
        fill: #f2f2f2;
      }
    </style>
  </defs>
  <path id="BG" class="cls-9" d="M385.23,1647.84c-64.42-44.59-255.26-176.67-251-343,2.86-111.66,91.81-167.61,101-361,1.96-41.22-.86-64.43,3-160,7.35-181.96,22.01-208.04,34-223,47.17-58.86,126.95-37.96,236-53,188.02-25.93,212.79-124.17,413-214,89.59-40.2,360.19-161.6,598-46,121.95,59.28,252.11,189.07,270,343,15.46,133.06-68.73,148.54-65,337,1.1,55.45,20.06,149.3,58,337,29.8,147.45,32.6,145.86,31,160-29.13,256.88-929.33,568.14-1428,223Z"/>
  <g id="Plant_2" data-name="Plant 2">
    <path class="cls-5" d="M545.72,1602.58s-84.89-17.59-79.25-98.71c5.64-81.12-45.47-98.18-70.82-139.71-25.34-41.53-34.44-125.44,1.16-149.56,35.6-24.12,101.49,41.53,106.38,86.57,4.89,45.04,20.67,77.72,65.81,105.05,45.14,27.34,76.08,149.1,66.99,158.11-9.09,9.01-90.27,38.25-90.27,38.25Z"/>
    <path class="cls-7" d="M418.32,1252.87c-1.4,20.89-2.79,42.5,3.51,62.79,6.09,19.59,18.88,36.96,30.96,53.26,12.83,17.3,27.37,33.07,41.23,49.52,13.69,16.26,25.24,33.9,34.93,52.81,10.88,21.23,19.56,43.49,27.89,65.82,.67,1.79,3.57,1.02,2.89-.8-14.05-37.68-29.31-75.65-53.88-107.89-25.74-33.78-58.56-63.2-76.77-102.31-10.73-23.05-9.42-48.48-7.76-73.21,.13-1.93-2.87-1.92-3,0h0Z"/>
    <path class="cls-7" d="M452.87,1362.15c-4.39-3.96-3.07-15.33-2.7-20.52,.63-8.99,2.47-17.84,4.26-26.65,3.24-15.94,6.33-32.06,2.83-48.23-.41-1.89-3.3-1.09-2.89,.8,4.15,19.2-1.44,38.25-4.89,57.09-1.55,8.47-2.8,17.11-2.5,25.75,.15,4.43,.24,10.69,3.78,13.89,1.43,1.29,3.56-.82,2.12-2.12h0Z"/>
    <path class="cls-7" d="M396.58,1279.43c-.81,9.95-1.37,20.76,4.86,29.22,3.35,4.55,8.07,8.14,12.26,11.87,5.07,4.51,10.14,9.02,15.21,13.53,1.44,1.28,3.57-.84,2.12-2.12-8.18-7.27-16.98-14.21-24.61-22.07-8.15-8.4-7.75-19.54-6.86-30.43,.16-1.92-2.84-1.91-3,0h0Z"/>
    <path class="cls-7" d="M498.84,1418.69c-16.98-9.99-35.66-17.49-53.5-25.8-1.74-.81-3.26,1.78-1.51,2.59,17.84,8.31,36.52,15.8,53.5,25.8,1.67,.98,3.18-1.61,1.51-2.59h0Z"/>
    <path class="cls-7" d="M539.6,1485.79c-.89-12.06,4.74-23.86,6.29-35.74s1.1-22.86-.82-34.18c-.32-1.9-3.21-1.09-2.89,.8,2.1,12.38,2.23,25.03,.09,37.42-1.83,10.57-6.46,20.83-5.66,31.71,.14,1.91,3.14,1.93,3,0h0Z"/>
  </g>
  <g id="Plant_1" data-name="Plant 1">
    <path class="cls-5" d="M1427.36,1590.75s-55.69-134.86,62.63-203.63c118.32-68.77,93.8-156.08,127.72-230.61,33.91-74.53,142.2-166.46,209.42-139.66,67.22,26.8,38.02,180.6-20.1,229.95-58.12,49.35-88.73,102.2-84.16,190.9,4.56,88.7-135.81,246.81-156.95,242.67-21.14-4.14-138.55-89.61-138.55-89.61Z"/>
    <path class="cls-7" d="M1536.18,1557.94c-6.88-28.54,1.19-59.64,10.39-86.74,9.6-28.28,22.11-56.92,38.7-81.85,18.86-28.34,43.71-51.92,66.58-76.91,23.31-25.48,43.04-53.28,59.41-83.7,18.69-34.73,33.41-71.4,48.07-107.96,.72-1.79-2.18-2.57-2.89-.8-13.58,33.89-27.23,67.84-44.08,100.27-16.5,31.76-36.33,61.07-60.38,87.6-22.58,24.91-47.22,48.2-66.51,75.9-16.91,24.28-29.46,52.31-39.48,80.06-10.62,29.4-20.24,63.66-12.7,94.93,.45,1.88,3.35,1.08,2.89-.8h0Z"/>
    <path class="cls-7" d="M1694.76,1257.99c-21.23-17.53-20.92-47.05-15.42-71.65,6.1-27.28,14.95-54.18,24.02-80.59,.63-1.83-2.27-2.62-2.89-.8-5.04,14.68-9.78,29.46-14.18,44.34-4.26,14.4-8.71,28.93-11.36,43.73-4.22,23.57-2.03,50.8,17.71,67.09,1.48,1.22,3.61-.89,2.12-2.12h0Z"/>
    <path class="cls-7" d="M1715.98,1227.71c21.44-6.86,41.24-17.68,58.62-31.98,1.49-1.23-.64-3.34-2.12-2.12-16.97,13.96-36.37,24.5-57.3,31.2-1.83,.59-1.05,3.48,.8,2.89h0Z"/>
    <path class="cls-7" d="M1607.68,1357.08c-6.66-23.97-7.16-49.07-1.44-73.28,.44-1.88-2.45-2.68-2.89-.8-5.84,24.72-5.36,50.4,1.44,74.88,.52,1.86,3.41,1.07,2.89-.8h0Z"/>
    <path class="cls-7" d="M1644.85,1314.36c25.47,10.09,53.16,12.74,80.09,7.83,1.9-.35,1.09-3.24-.8-2.89-26.41,4.82-53.55,2.06-78.5-7.83-1.8-.71-2.57,2.19-.8,2.89h0Z"/>
    <path class="cls-7" d="M1557.97,1473.06c2.41-23.64,32.28-24.01,49.95-24.68,21.55-.81,43.1-1.62,64.65-2.43,1.92-.07,1.93-3.07,0-3-25.31,.95-50.67,1.54-75.96,2.88-17.32,.92-39.54,6.61-41.64,27.22-.2,1.92,2.81,1.91,3,0h0Z"/>
  </g>
  <ellipse class="cls-1" cx="998.23" cy="1625.34" rx="751" ry="101.5"/>
  <g id="List">
    <rect class="cls-8" x="699.23" y="399.84" width="936" height="1173" transform="translate(256.26 -240.62) rotate(13.21)"/>
    <rect class="cls-6" x="652.23" y="394.84" width="936" height="1173" transform="translate(102.68 -106.1) rotate(5.68)"/>
    <g>
      <rect class="cls-2" x="587.23" y="405.84" width="948" height="1101" transform="translate(58.54 -61.21) rotate(3.4)"/>
      <rect class="cls-3" x="713.47" y="459.13" width="91" height="91" transform="translate(31.24 -44.09) rotate(3.4)"/>
      <rect class="cls-3" x="703.1" y="633.83" width="91" height="91" transform="translate(41.57 -43.17) rotate(3.4)"/>
      <rect class="cls-3" x="692.96" y="804.53" width="91" height="91" transform="translate(51.67 -42.27) rotate(3.4)"/>
      <rect class="cls-3" x="682.89" y="974.23" width="91" height="91" transform="translate(61.71 -41.37) rotate(3.4)"/>
      <rect class="cls-3" x="672.05" y="1156.91" width="91" height="91" transform="translate(72.51 -40.41) rotate(3.4)"/>
      <rect class="cls-3" x="864.22" y="491.69" width="551" height="23" transform="translate(31.82 -66.65) rotate(3.4)"/>
      <rect class="cls-3" x="861.36" y="538.17" width="435" height="23" transform="translate(34.47 -62.97) rotate(3.4)"/>
      <rect class="cls-3" x="853.95" y="663.94" width="502" height="23" transform="translate(41.97 -64.29) rotate(3.4)"/>
      <rect class="cls-3" x="850.96" y="714.94" width="539" height="23" transform="translate(45.02 -65.12) rotate(3.4)"/>
      <rect class="cls-3" x="843.6" y="839.08" width="551" height="23" transform="translate(52.37 -64.82) rotate(3.4)"/>
      <rect class="cls-3" x="840.6" y="887.16" width="489" height="26" transform="translate(55.25 -62.72) rotate(3.4)"/>
      <rect class="cls-3" x="833.36" y="1010.23" width="465" height="23" transform="translate(62.42 -61.37) rotate(3.4)"/>
      <rect class="cls-3" x="830.33" y="1062.69" width="551" height="23" transform="translate(65.6 -63.64) rotate(3.4)"/>
      <rect class="cls-3" x="822.98" y="1186.47" width="551" height="23" transform="translate(72.92 -62.99) rotate(3.4)"/>
      <rect class="cls-3" x="820.14" y="1232.32" width="414" height="23" transform="translate(75.51 -58.68) rotate(3.4)"/>
    </g>
    <path class="cls-4" d="M565.77,856.66s80.37-34,95.83-42.39c15.46-8.39,30.19-164.67,30.63-185.42l28,7s-1.67,181.07-20.66,203.15c-18.99,22.08-116.14,73.75-116.14,73.75l-17.66-56.08Z"/>
    <path class="cls-4" d="M680.86,616.64s2.82,14.78,12.09,16.1,0-16.1,0-16.1h-12.09Z"/>
    <path class="cls-8" d="M673.52,590.35c2.65,.44,87.88,42.39,87.88,42.39l-7.51,17.66-87.88-40.63,7.51-19.43Z"/>
    <path class="cls-4" d="M693.23,632.84s-8.23-28.8-.28-31.89,30.03-2.21,34,7.51-3.09,21.2-7.07,27.82-24.89,4.07-26.66-3.44Z"/>
    <polygon class="cls-6" points="753.89 650.41 773.32 650.41 761.4 632.74 753.89 650.41"/>
    <polygon class="cls-6" points="756.22 535.01 716.37 494.97 734.09 477.33 755.33 498.67 815.95 431.47 834.51 448.21 756.22 535.01"/>
    <polygon class="cls-6" points="756.22 708.01 716.37 667.97 734.09 650.33 755.33 671.67 815.95 604.47 834.51 621.21 756.22 708.01"/>
    <polygon class="cls-6" points="729.22 890.01 689.37 849.97 707.09 832.33 728.33 853.67 788.95 786.47 807.51 803.21 729.22 890.01"/>
    <polygon class="cls-6" points="729.22 1049.01 689.37 1008.97 707.09 991.33 728.33 1012.67 788.95 945.47 807.51 962.21 729.22 1049.01"/>
    <polygon class="cls-6" points="719.22 1245.01 679.37 1204.97 697.09 1187.33 718.33 1208.67 778.95 1141.47 797.51 1158.21 719.22 1245.01"/>
  </g>
  <g id="Person">
    <path class="cls-8" d="M614.23,1661.84c-23.25-29.39-76.63-32.12-85.05-31.72-6.87,2.36-13.6,4.61-19.95,6.72-7.54,3.14-15.08,6.67-23.11,8.62,.37,8.57,.57,13.57,.57,13.57l127.54,2.8Z"/>
    <path class="cls-4" d="M696.3,1513.97c-11.95,2.64-24.26,3.21-36.45,3.08-.11,12.08-.31,23.08-.52,32.14,10.17-1.41,21.5-1.54,31.45-4.76,.62-3.07,2.86-14.48,5.52-30.45Z"/>
    <path class="cls-4" d="M395.21,915.08s-57.98,151.76-56.98,185.76,120,146,120,146l4-35s-88-84-77-129,56.7-144.47,56.7-144.47l-46.72-23.29Z"/>
    <path class="cls-8" d="M763.23,1588.84c-23.66-38.8-72.62-43.59-72.62-43.59,0,0,.06-.29,.17-.83-9.95,3.22-21.28,3.36-31.45,4.76-.35,15.16-.73,24.84-.73,24.84l104.63,14.82Z"/>
    <path class="cls-6" d="M382.51,940.53s16.34-69.33,53.43-64.91c37.09,4.42-9.72,101.13-9.72,101.13l-43.72-36.21Z"/>
    <path class="cls-4" d="M529.18,1630.12c-2.7,.13-4.2,.58-4.2,.58,0,0,.22-9.73,.51-25-11.02,8.6-25.86,10.36-40.64,10.62,.52,11.76,.95,21.78,1.26,29.15,8.03-1.95,15.57-5.48,23.11-8.62,6.35-2.12,13.07-4.36,19.95-6.72Z"/>
    <path class="cls-8" d="M531.77,1366.54c-3.97-59.28,.15-297.82,.15-297.82h-104.01s1.56,44.13,7.33,97.12c7.82,71.95,20.81,160.29,24.11,177.14,4.15,21.14,11.98,188.59,16.01,279.96,20.4-.36,40.91-2.79,56.12-14.66,1.21-63.68,3.28-197.2,.29-241.74Z"/>
    <path class="cls-8" d="M706.58,1511.99c10.33-62.09,25.18-174.11,7.12-219.93-25.61-64.98-148.6-218.81-148.6-218.81l-72.64-.08c-19.55-2.91-18.72,45.77,25.77,109.67,30,43.09,99.41,97.28,121.64,131.33,15.1,23.14,17.04,127.37,16.38,202.07,16.84,.18,33.83-.61,50.34-4.25Z"/>
    <polygon class="cls-4" points="435.94 824.84 447.42 880.92 492.91 879.59 481.43 824.84 435.94 824.84"/>
    <path class="cls-4" d="M492.47,762.13s30.03,74.63,0,90.97c-30.03,16.34-60.94-8.39-61.82-25.61-.88-17.22-17.66-53.87-17.66-53.87l79.49-11.48Z"/>
    <path class="cls-8" d="M448.31,810.26h8.39l-11.48-35.33s52.55-3.53,54.32-22.96c1.77-19.43-32.59-12.81-58.73-12.81-33.12,0-39.3,22.96-39.3,22.96,0,0-3.7-.9,0,20.31,4.86,27.82,34.44,70.66,49.9,70.66,7.95,0-8.83-21.2-8.83-21.2l-1.77-14.13s-11.48-16.34-7.51-18.99,15.01,11.48,15.01,11.48Z"/>
    <path class="cls-6" d="M435.94,875.62s82.83-19.77,98.29-.78c15.46,18.99,31,198,31,198l-141,64s-24.06-207.35,11.71-261.22Z"/>
    <path class="cls-6" d="M567.15,853.78s-65.98,10.85-59.53,35.23c6.44,24.38,46.61,50.83,93.41,35.48l-33.87-70.7Z"/>
  </g>
</svg>